{"asset":{"version":"2.0","generator":"babylon.js glTF exporter for 3dsmax 2019 v20210401.5"},"scene":0,"scenes":[{"nodes":[0]}],"nodes":[{"mesh":0,"name":"OilTank001"}],"meshes":[{"primitives":[{"attributes":{"POSITION":1,"NORMAL":2,"TEXCOORD_0":3},"indices":0}],"name":"OilTank001"}],"accessors":[{"bufferView":0,"componentType":5123,"count":576,"type":"SCALAR","name":"accessorIndices"},{"bufferView":1,"componentType":5126,"count":576,"max":[0.326318234,0.8685556,0.326318234],"min":[-0.326318234,0.0,-0.326318234],"type":"VEC3","name":"accessorPositions"},{"bufferView":1,"byteOffset":6912,"componentType":5126,"count":576,"type":"VEC3","name":"accessorNormals"},{"bufferView":2,"componentType":5126,"count":576,"type":"VEC2","name":"accessorUVs"}],"bufferViews":[{"buffer":0,"byteLength":1152,"name":"bufferViewScalar"},{"buffer":0,"byteOffset":1152,"byteLength":13824,"byteStride":12,"name":"bufferViewFloatVec3"},{"buffer":0,"byteOffset":14976,"byteLength":4608,"byteStride":8,"name":"bufferViewFloatVec2"}],"buffers":[{"uri":"autreObjet_001.bin","byteLength":19584}]}