{"asset":{"version":"2.0","generator":"babylon.js glTF exporter for 3dsmax 2019 v20210401.5"},"scene":0,"scenes":[{"nodes":[0,1]}],"nodes":[{"translation":[0.7937938,0.0,-0.58232],"name":"Tape001.Target"},{"mesh":0,"translation":[3.18419671,0.0,0.612457931],"name":"Plane002"}],"meshes":[{"primitives":[{"attributes":{"POSITION":1,"NORMAL":2,"TEXCOORD_0":3},"indices":0}],"name":"Plane002"}],"accessors":[{"bufferView":0,"componentType":5123,"count":2616,"type":"SCALAR","name":"accessorIndices"},{"bufferView":1,"componentType":5126,"count":2616,"max":[4.176443,1.40268922,2.20022178],"min":[-4.17644262,-0.0007459259,-2.20022178],"type":"VEC3","name":"accessorPositions"},{"bufferView":1,"byteOffset":31392,"componentType":5126,"count":2616,"type":"VEC3","name":"accessorNormals"},{"bufferView":2,"componentType":5126,"count":2616,"type":"VEC2","name":"accessorUVs"}],"bufferViews":[{"buffer":0,"byteLength":5232,"name":"bufferViewScalar"},{"buffer":0,"byteOffset":5232,"byteLength":62784,"byteStride":12,"name":"bufferViewFloatVec3"},{"buffer":0,"byteOffset":68016,"byteLength":20928,"byteStride":8,"name":"bufferViewFloatVec2"}],"buffers":[{"uri":"autreObjet_001.bin","byteLength":88944}]}