{"asset":{"version":"2.0","generator":"babylon.js glTF exporter for 3dsmax 2019 v20210401.5"},"scene":0,"scenes":[{"nodes":[0]}],"nodes":[{"mesh":0,"name":"rp_dennis_posed_004_30k"}],"meshes":[{"primitives":[{"attributes":{"POSITION":1,"NORMAL":2,"TEXCOORD_0":3},"indices":0,"material":0}],"name":"rp_dennis_posed_004_30k"}],"accessors":[{"bufferView":0,"componentType":5125,"count":90120,"type":"SCALAR","name":"accessorIndices"},{"bufferView":1,"componentType":5126,"count":90120,"max":[0.289921,1.86115789,0.224917],"min":[-0.351908982,-0.009965999,-0.224986],"type":"VEC3","name":"accessorPositions"},{"bufferView":1,"byteOffset":1081440,"componentType":5126,"count":90120,"type":"VEC3","name":"accessorNormals"},{"bufferView":2,"componentType":5126,"count":90120,"type":"VEC2","name":"accessorUVs"}],"bufferViews":[{"buffer":0,"byteLength":360480,"name":"bufferViewScalar"},{"buffer":0,"byteOffset":360480,"byteLength":2162880,"byteStride":12,"name":"bufferViewFloatVec3"},{"buffer":0,"byteOffset":2523360,"byteLength":720960,"byteStride":8,"name":"bufferViewFloatVec2"}],"buffers":[{"uri":"exempleObjet_001.bin","byteLength":3244320}],"materials":[{"pbrMetallicRoughness":{"baseColorTexture":{"index":1},"metallicFactor":0.0,"roughnessFactor":0.2647434},"normalTexture":{"index":0,"scale":0.3},"name":"rp_dennis_posed_004_leather"}],"textures":[{"sampler":0,"source":0,"name":"rp_dennis_posed_004_norm_2k.jpg"},{"sampler":0,"source":1,"name":"rp_dennis_posed_004_dif_2k.jpg"}],"images":[{"uri":"./rp_dennis_posed_004_norm_2k.jpg"},{"uri":"./rp_dennis_posed_004_dif_2k.jpg"}],"samplers":[{"magFilter":9729,"minFilter":9987}]}