{"asset":{"version":"2.0","generator":"babylon.js glTF exporter for 3dsmax 2019 v20210401.5"},"scene":0,"scenes":[{"nodes":[0]}],"nodes":[{"mesh":0,"name":"porte_001"}],"meshes":[{"primitives":[{"attributes":{"POSITION":1,"NORMAL":2,"TEXCOORD_0":3},"indices":0,"material":0}],"name":"porte_001"}],"accessors":[{"bufferView":0,"componentType":5123,"count":372,"type":"SCALAR","name":"accessorIndices"},{"bufferView":1,"componentType":5126,"count":372,"max":[1.67891288,4.316921,0.0462840535],"min":[-1.67891288,0.000113983151,-0.0462839752],"type":"VEC3","name":"accessorPositions"},{"bufferView":1,"byteOffset":4464,"componentType":5126,"count":372,"type":"VEC3","name":"accessorNormals"},{"bufferView":2,"componentType":5126,"count":372,"type":"VEC2","name":"accessorUVs"}],"bufferViews":[{"buffer":0,"byteLength":744,"name":"bufferViewScalar"},{"buffer":0,"byteOffset":744,"byteLength":8928,"byteStride":12,"name":"bufferViewFloatVec3"},{"buffer":0,"byteOffset":9672,"byteLength":2976,"byteStride":8,"name":"bufferViewFloatVec2"}],"buffers":[{"uri":"porte_001.bin","byteLength":12648}],"materials":[{"pbrMetallicRoughness":{"baseColorTexture":{"index":0},"metallicFactor":0.0,"roughnessFactor":0.450053632},"name":"Material #26"}],"textures":[{"sampler":0,"source":0,"name":"porte_001.jpg"}],"images":[{"uri":"./porte_001.jpg"}],"samplers":[{"magFilter":9729,"minFilter":9987}]}