{"asset":{"version":"2.0","generator":"babylon.js glTF exporter for 3dsmax 2019 v20210401.5"},"scene":0,"scenes":[{"nodes":[0]}],"nodes":[{"mesh":0,"translation":[-0.00148420467,0.0,-0.00148430758],"name":"Teapot001"}],"meshes":[{"primitives":[{"attributes":{"POSITION":1,"NORMAL":2,"TEXCOORD_0":3},"indices":0}],"name":"Teapot001"}],"accessors":[{"bufferView":0,"componentType":5123,"count":1728,"type":"SCALAR","name":"accessorIndices"},{"bufferView":1,"componentType":5126,"count":1728,"max":[0.7387018,0.6784729,0.430776477],"min":[-0.6461647,0.0,-0.430776477],"type":"VEC3","name":"accessorPositions"},{"bufferView":1,"byteOffset":20736,"componentType":5126,"count":1728,"type":"VEC3","name":"accessorNormals"},{"bufferView":2,"componentType":5126,"count":1728,"type":"VEC2","name":"accessorUVs"}],"bufferViews":[{"buffer":0,"byteLength":3456,"name":"bufferViewScalar"},{"buffer":0,"byteOffset":3456,"byteLength":41472,"byteStride":12,"name":"bufferViewFloatVec3"},{"buffer":0,"byteOffset":44928,"byteLength":13824,"byteStride":8,"name":"bufferViewFloatVec2"}],"buffers":[{"uri":"exempleObjet_001.bin","byteLength":58752}]}